<svg xmlns="http://www.w3.org/2000/svg" xmlns:xlink="http://www.w3.org/1999/xlink" width="640" height="420"><g transform="translate(-60 -40)"><path d="M0 0h1360v1760H0z" fill="#fff"/><path d="M120 240h160V120H120z" stroke="#000" stroke-width="2" fill="#fff"/><use xlink:href="#a" transform="matrix(1,0,0,1,125,125) translate(36.481481481481474 59.266666666666666)"/><use xlink:href="#b" transform="matrix(1,0,0,1,125,125) translate(89.81481481481481 59.266666666666666)"/><path d="M520 240h160V120H520z" fill="#0c7cba"/><use xlink:href="#c" transform="matrix(1,0,0,1,525,125) translate(46.55 47.8)"/><use xlink:href="#d" transform="matrix(1,0,0,1,525,125) translate(47.074999999999996 69.4)"/><path d="M500 428c0 6.63-35.82 12-80 12s-80-5.37-80-12v-96c0-6.63 35.82-12 80-12s80 5.37 80 12z" stroke="#000" stroke-width="2" fill="#fff"/><path d="M500 332c0 6.63-35.82 12-80 12s-80-5.37-80-12" stroke="#000" stroke-width="2" fill="none"/><use xlink:href="#e" transform="matrix(1,0,0,1,345,349) translate(35.05 46.6)"/><path d="M200 240v39.5h220V319" stroke="#000" stroke-width="2" fill="none"/><path d="M420 319l-4.64-14.27h9.28z"/><path d="M420.72 320.02L420 320h-.73L414 303.73h12zm-3.98-14.3l3.26 10.04 3.26-10.03z"/><path fill="#fff" d="M263 257.9h94v43.2h-94z"/><use xlink:href="#f" transform="matrix(1,0,0,1,263,257.89999585432065) translate(0 14.4)"/><use xlink:href="#g" transform="matrix(1,0,0,1,263,257.89999585432065) translate(46 14.4)"/><use xlink:href="#h" transform="matrix(1,0,0,1,263,257.89999585432065) translate(0 36)"/><use xlink:href="#i" transform="matrix(1,0,0,1,263,257.89999585432065) translate(17 36)"/><path d="M280 180h240" stroke="#000" stroke-width="2" fill="none"/><path d="M520 180l-14.27 4.64v-9.28z"/><path d="M520 178.95v2.1L504.73 186v-12zm-13.27 4.3l10.03-3.25-10.03-3.26z"/><path fill="#fff" d="M359.05 158.4h81.9v43.2h-81.9z"/><g><use xlink:href="#j" transform="matrix(1,0,0,1,359.05,158.4) translate(0 14.4)"/><use xlink:href="#k" transform="matrix(1,0,0,1,359.05,158.4) translate(0 36)"/><use xlink:href="#l" transform="matrix(1,0,0,1,359.05,158.4) translate(25 36)"/></g><path d="M80 60h240v60H80z" fill="none"/><g><use xlink:href="#m" transform="matrix(1,0,0,1,85,65) translate(57.099999999999994 28.6)"/><use xlink:href="#n" transform="matrix(1,0,0,1,85,65) translate(111.05 28.6)"/></g><defs><path d="M30 0v-248h187v28H63v79h144v27H63v87h162V0H30" id="o"/><path d="M141 0L90-78 38 0H4l68-98-65-92h35l48 74 47-74h35l-64 92 68 98h-35" id="p"/><path d="M100-194c63 0 86 42 84 106H49c0 40 14 67 53 68 26 1 43-12 49-29l28 8c-11 28-37 45-77 45C44 4 14-33 15-96c1-61 26-98 85-98zm52 81c6-60-76-77-97-28-3 7-6 17-6 28h103" id="q"/><path d="M96-169c-40 0-48 33-48 73s9 75 48 75c24 0 41-14 43-38l32 2c-6 37-31 61-74 61-59 0-76-41-82-99-10-93 101-131 147-64 4 7 5 14 7 22l-32 3c-4-21-16-35-41-35" id="r"/><g id="a"><use transform="matrix(0.05925925925925927,0,0,0.05925925925925927,0,0)" xlink:href="#o"/><use transform="matrix(0.05925925925925927,0,0,0.05925925925925927,14.222222222222225,0)" xlink:href="#p"/><use transform="matrix(0.05925925925925927,0,0,0.05925925925925927,24.888888888888893,0)" xlink:href="#q"/><use transform="matrix(0.05925925925925927,0,0,0.05925925925925927,36.74074074074075,0)" xlink:href="#r"/></g><path d="M158-156l-14 65h45v19h-49L124 0h-19l15-72H56L41 0H22l15-72H2v-19h39l14-65H11v-19h48l15-71h20l-16 71h64l16-71h19l-16 71h37v19h-40zm-83 0L61-91h63l14-65H75" id="s"/><path d="M27 0v-27h64v-190l-56 39v-29l58-41h29v221h61V0H27" id="t"/><g id="b"><use transform="matrix(0.05925925925925927,0,0,0.05925925925925927,0,0)" xlink:href="#s"/><use transform="matrix(0.05925925925925927,0,0,0.05925925925925927,11.851851851851853,0)" xlink:href="#t"/></g><path fill="#fff" d="M30-248c118-7 216 8 213 122C240-48 200 0 122 0H30v-248zM63-27c89 8 146-16 146-99s-60-101-146-95v194" id="u"/><path fill="#fff" d="M100-194c62-1 85 37 85 99 1 63-27 99-86 99S16-35 15-95c0-66 28-99 85-99zM99-20c44 1 53-31 53-75 0-43-8-75-51-75s-53 32-53 75 10 74 51 75" id="v"/><path fill="#fff" d="M96-169c-40 0-48 33-48 73s9 75 48 75c24 0 41-14 43-38l32 2c-6 37-31 61-74 61-59 0-76-41-82-99-10-93 101-131 147-64 4 7 5 14 7 22l-32 3c-4-21-16-35-41-35" id="w"/><path fill="#fff" d="M143 0L79-87 56-68V0H24v-261h32v163l83-92h37l-77 82L181 0h-38" id="x"/><path fill="#fff" d="M100-194c63 0 86 42 84 106H49c0 40 14 67 53 68 26 1 43-12 49-29l28 8c-11 28-37 45-77 45C44 4 14-33 15-96c1-61 26-98 85-98zm52 81c6-60-76-77-97-28-3 7-6 17-6 28h103" id="y"/><path fill="#fff" d="M114-163C36-179 61-72 57 0H25l-1-190h30c1 12-1 29 2 39 6-27 23-49 58-41v29" id="z"/><g id="c"><use transform="matrix(0.05,0,0,0.05,0,0)" xlink:href="#u"/><use transform="matrix(0.05,0,0,0.05,12.950000000000001,0)" xlink:href="#v"/><use transform="matrix(0.05,0,0,0.05,22.950000000000003,0)" xlink:href="#w"/><use transform="matrix(0.05,0,0,0.05,31.950000000000003,0)" xlink:href="#x"/><use transform="matrix(0.05,0,0,0.05,40.95,0)" xlink:href="#y"/><use transform="matrix(0.05,0,0,0.05,50.95,0)" xlink:href="#z"/></g><path fill="#fff" d="M185-189c-5-48-123-54-124 2 14 75 158 14 163 119 3 78-121 87-175 55-17-10-28-26-33-46l33-7c5 56 141 63 141-1 0-78-155-14-162-118-5-82 145-84 179-34 5 7 8 16 11 25" id="A"/><path fill="#fff" d="M206 0h-36l-40-164L89 0H53L-1-190h32L70-26l43-164h34l41 164 42-164h31" id="B"/><path fill="#fff" d="M141-36C126-15 110 5 73 4 37 3 15-17 15-53c-1-64 63-63 125-63 3-35-9-54-41-54-24 1-41 7-42 31l-33-3c5-37 33-52 76-52 45 0 72 20 72 64v82c-1 20 7 32 28 27v20c-31 9-61-2-59-35zM48-53c0 20 12 33 32 33 41-3 63-29 60-74-43 2-92-5-92 41" id="C"/><path fill="#fff" d="M210-169c-67 3-38 105-44 169h-31v-121c0-29-5-50-35-48C34-165 62-65 56 0H25l-1-190h30c1 10-1 24 2 32 10-44 99-50 107 0 11-21 27-35 58-36 85-2 47 119 55 194h-31v-121c0-29-5-49-35-48" id="D"/><g id="d"><use transform="matrix(0.05,0,0,0.05,0,0)" xlink:href="#A"/><use transform="matrix(0.05,0,0,0.05,12,0)" xlink:href="#B"/><use transform="matrix(0.05,0,0,0.05,24.950000000000003,0)" xlink:href="#C"/><use transform="matrix(0.05,0,0,0.05,34.95,0)" xlink:href="#z"/><use transform="matrix(0.05,0,0,0.05,40.900000000000006,0)" xlink:href="#D"/></g><path d="M240 0l2-218c-23 76-54 145-80 218h-23L58-218 59 0H30v-248h44l77 211c21-75 51-140 76-211h43V0h-30" id="E"/><path d="M100-194c62-1 85 37 85 99 1 63-27 99-86 99S16-35 15-95c0-66 28-99 85-99zM99-20c44 1 53-31 53-75 0-43-8-75-51-75s-53 32-53 75 10 74 51 75" id="F"/><path d="M117-194c89-4 53 116 60 194h-32v-121c0-31-8-49-39-48C34-167 62-67 57 0H25l-1-190h30c1 10-1 24 2 32 11-22 29-35 61-36" id="G"/><path d="M177-190C167-65 218 103 67 71c-23-6-38-20-44-43l32-5c15 47 100 32 89-28v-30C133-14 115 1 83 1 29 1 15-40 15-95c0-56 16-97 71-98 29-1 48 16 59 35 1-10 0-23 2-32h30zM94-22c36 0 50-32 50-73 0-42-14-75-50-75-39 0-46 34-46 75s6 73 46 73" id="H"/><path d="M30-248c118-7 216 8 213 122C240-48 200 0 122 0H30v-248zM63-27c89 8 146-16 146-99s-60-101-146-95v194" id="I"/><path d="M160-131c35 5 61 23 61 61C221 17 115-2 30 0v-248c76 3 177-17 177 60 0 33-19 50-47 57zm-97-11c50-1 110 9 110-42 0-47-63-36-110-37v79zm0 115c55-2 124 14 124-45 0-56-70-42-124-44v89" id="J"/><g id="e"><use transform="matrix(0.05,0,0,0.05,0,0)" xlink:href="#E"/><use transform="matrix(0.05,0,0,0.05,14.950000000000001,0)" xlink:href="#F"/><use transform="matrix(0.05,0,0,0.05,24.950000000000003,0)" xlink:href="#G"/><use transform="matrix(0.05,0,0,0.05,34.95,0)" xlink:href="#H"/><use transform="matrix(0.05,0,0,0.05,44.95,0)" xlink:href="#F"/><use transform="matrix(0.05,0,0,0.05,54.95,0)" xlink:href="#I"/><use transform="matrix(0.05,0,0,0.05,67.9,0)" xlink:href="#J"/></g><path d="M185-189c-5-48-123-54-124 2 14 75 158 14 163 119 3 78-121 87-175 55-17-10-28-26-33-46l33-7c5 56 141 63 141-1 0-78-155-14-162-118-5-82 145-84 179-34 5 7 8 16 11 25" id="K"/><path d="M141-36C126-15 110 5 73 4 37 3 15-17 15-53c-1-64 63-63 125-63 3-35-9-54-41-54-24 1-41 7-42 31l-33-3c5-37 33-52 76-52 45 0 72 20 72 64v82c-1 20 7 32 28 27v20c-31 9-61-2-59-35zM48-53c0 20 12 33 32 33 41-3 63-29 60-74-43 2-92-5-92 41" id="L"/><path d="M108 0H70L1-190h34L89-25l56-165h34" id="M"/><g id="f"><use transform="matrix(0.05,0,0,0.05,0,0)" xlink:href="#K"/><use transform="matrix(0.05,0,0,0.05,12,0)" xlink:href="#L"/><use transform="matrix(0.05,0,0,0.05,22,0)" xlink:href="#M"/><use transform="matrix(0.05,0,0,0.05,31,0)" xlink:href="#q"/></g><path d="M135-143c-3-34-86-38-87 0 15 53 115 12 119 90S17 21 10-45l28-5c4 36 97 45 98 0-10-56-113-15-118-90-4-57 82-63 122-42 12 7 21 19 24 35" id="N"/><path d="M59-47c-2 24 18 29 38 22v24C64 9 27 4 27-40v-127H5v-23h24l9-43h21v43h35v23H59v120" id="O"/><path d="M84 4C-5 8 30-112 23-190h32v120c0 31 7 50 39 49 72-2 45-101 50-169h31l1 190h-30c-1-10 1-25-2-33-11 22-28 36-60 37" id="P"/><g id="g"><use transform="matrix(0.05,0,0,0.05,0,0)" xlink:href="#N"/><use transform="matrix(0.05,0,0,0.05,9,0)" xlink:href="#O"/><use transform="matrix(0.05,0,0,0.05,14,0)" xlink:href="#L"/><use transform="matrix(0.05,0,0,0.05,24,0)" xlink:href="#O"/><use transform="matrix(0.05,0,0,0.05,29,0)" xlink:href="#P"/><use transform="matrix(0.05,0,0,0.05,39,0)" xlink:href="#N"/></g><path d="M234-2c-28 10-62 0-77-18C117 19 8 12 13-65c3-43 29-61 60-76-25-40-17-114 47-108 35 3 59 15 59 50 0 44-40 53-71 69 14 26 32 50 51 72 14-21 24-43 30-72l26 8c-9 33-21 57-38 82 13 13 33 22 57 15v23zM97-151c25-10 52-18 56-48-1-18-13-29-33-29-42 0-39 50-23 77zM42-66c-3 51 71 58 98 28-20-24-41-51-56-80-23 10-40 24-42 52" id="Q"/><use transform="matrix(0.05,0,0,0.05,0,0)" xlink:href="#Q" id="h"/><path d="M24 0v-261h32V0H24" id="R"/><g id="i"><use transform="matrix(0.05,0,0,0.05,0,0)" xlink:href="#R"/><use transform="matrix(0.05,0,0,0.05,3.95,0)" xlink:href="#F"/><use transform="matrix(0.05,0,0,0.05,13.949999999999998,0)" xlink:href="#H"/><use transform="matrix(0.05,0,0,0.05,23.95,0)" xlink:href="#N"/></g><g id="j"><use transform="matrix(0.05,0,0,0.05,0,0)" xlink:href="#o"/><use transform="matrix(0.05,0,0,0.05,12,0)" xlink:href="#p"/><use transform="matrix(0.05,0,0,0.05,21,0)" xlink:href="#q"/><use transform="matrix(0.05,0,0,0.05,31,0)" xlink:href="#r"/><use transform="matrix(0.05,0,0,0.05,40,0)" xlink:href="#P"/><use transform="matrix(0.05,0,0,0.05,50,0)" xlink:href="#O"/><use transform="matrix(0.05,0,0,0.05,55,0)" xlink:href="#q"/></g><g id="k"><use transform="matrix(0.05,0,0,0.05,0,0)" xlink:href="#F"/><use transform="matrix(0.05,0,0,0.05,10,0)" xlink:href="#G"/></g><path d="M143 0L79-87 56-68V0H24v-261h32v163l83-92h37l-77 82L181 0h-38" id="S"/><path d="M114-163C36-179 61-72 57 0H25l-1-190h30c1 12-1 29 2 39 6-27 23-49 58-41v29" id="T"/><g id="l"><use transform="matrix(0.05,0,0,0.05,0,0)" xlink:href="#I"/><use transform="matrix(0.05,0,0,0.05,12.950000000000001,0)" xlink:href="#F"/><use transform="matrix(0.05,0,0,0.05,22.950000000000003,0)" xlink:href="#r"/><use transform="matrix(0.05,0,0,0.05,31.950000000000003,0)" xlink:href="#S"/><use transform="matrix(0.05,0,0,0.05,40.95,0)" xlink:href="#q"/><use transform="matrix(0.05,0,0,0.05,50.95,0)" xlink:href="#T"/></g><path d="M24-248c93 1 206-16 204 79-1 75-69 88-152 82V0H24v-248zm52 121c47 0 100 7 100-41 0-47-54-39-100-39v80" id="U"/><path d="M140-251c80 0 125 45 125 126S219 4 139 4C58 4 15-44 15-125s44-126 125-126zm-1 214c52 0 73-35 73-88 0-50-21-86-72-86-52 0-73 35-73 86s22 88 72 88" id="V"/><path d="M169-182c-1-43-94-46-97-3 18 66 151 10 154 114 3 95-165 93-204 36-6-8-10-19-12-30l50-8c3 46 112 56 116 5-17-69-150-10-154-114-4-87 153-88 188-35 5 8 8 18 10 28" id="W"/><path d="M136-208V0H84v-208H4v-40h212v40h-80" id="X"/><g id="m"><use transform="matrix(0.05,0,0,0.05,0,0)" xlink:href="#U"/><use transform="matrix(0.05,0,0,0.05,12,0)" xlink:href="#V"/><use transform="matrix(0.05,0,0,0.05,26,0)" xlink:href="#W"/><use transform="matrix(0.05,0,0,0.05,38,0)" xlink:href="#X"/></g><path d="M4 7l51-268h42L46 7H4" id="Y"/><path d="M115-3C79 11 28 4 28-45v-112H4v-33h27l15-45h31v45h36v33H77v99c-1 23 16 31 38 25v30" id="Z"/><path d="M135-150c-39-12-60 13-60 57V0H25l-1-190h47c2 13-1 29 3 40 6-28 27-53 61-41v41" id="aa"/><path d="M25-224v-37h50v37H25zM25 0v-190h50V0H25" id="ab"/><path d="M195-6C206 82 75 100 31 46c-4-6-6-13-8-21l49-6c3 16 16 24 34 25 40 0 42-37 40-79-11 22-30 35-61 35-53 0-70-43-70-97 0-56 18-96 73-97 30 0 46 14 59 34l2-30h47zm-90-29c32 0 41-27 41-63 0-35-9-62-40-62-32 0-39 29-40 63 0 36 9 62 39 62" id="ac"/><path d="M185-48c-13 30-37 53-82 52C43 2 14-33 14-96s30-98 90-98c62 0 83 45 84 108H66c0 31 8 55 39 56 18 0 30-7 34-22zm-45-69c5-46-57-63-70-21-2 6-4 13-4 21h74" id="ad"/><g id="n"><use transform="matrix(0.05,0,0,0.05,0,0)" xlink:href="#Y"/><use transform="matrix(0.05,0,0,0.05,5,0)" xlink:href="#Z"/><use transform="matrix(0.05,0,0,0.05,10.95,0)" xlink:href="#aa"/><use transform="matrix(0.05,0,0,0.05,17.95,0)" xlink:href="#ab"/><use transform="matrix(0.05,0,0,0.05,22.95,0)" xlink:href="#ac"/><use transform="matrix(0.05,0,0,0.05,33.9,0)" xlink:href="#ac"/><use transform="matrix(0.05,0,0,0.05,44.85,0)" xlink:href="#ad"/><use transform="matrix(0.05,0,0,0.05,54.85,0)" xlink:href="#aa"/></g></defs></g></svg>